<svg xmlns="http://www.w3.org/2000/svg" width="1600" height="700" viewBox="0 0 1600 700" fill="none">
  <defs>
    <linearGradient id="bg" x1="0" y1="0" x2="1600" y2="700" gradientUnits="userSpaceOnUse">
      <stop stop-color="#0B1D18"/>
      <stop offset="1" stop-color="#020617"/>
    </linearGradient>
    <linearGradient id="line" x1="220" y1="540" x2="1380" y2="220" gradientUnits="userSpaceOnUse">
      <stop stop-color="#FB7185"/>
      <stop offset="1" stop-color="#EC4899"/>
    </linearGradient>
  </defs>
  <rect width="1600" height="700" rx="34" fill="url(#bg)"/>
  <circle cx="280" cy="560" r="230" fill="#FB7185" fill-opacity="0.10"/>
  <circle cx="1280" cy="170" r="240" fill="#F472B6" fill-opacity="0.08"/>
  <g transform="translate(150 350)">
    <rect x="0" y="0" width="190" height="250" rx="34" fill="#111827" stroke="#334155" stroke-width="4"/>
    <rect x="28" y="34" width="134" height="22" rx="11" fill="#FB7185"/>
    <rect x="28" y="78" width="134" height="14" rx="7" fill="#334155"/>
    <rect x="28" y="108" width="102" height="14" rx="7" fill="#334155"/>
    <rect x="28" y="138" width="134" height="14" rx="7" fill="#334155"/>
    <path d="M36 196l34-24 24 20 42-50" stroke="#F472B6" stroke-width="10" stroke-linecap="round" stroke-linejoin="round"/>
  </g>
  <g transform="translate(460 250)">
    <circle cx="0" cy="0" r="64" fill="#0F172A" stroke="#F472B6" stroke-width="4"/>
    <path d="M-22 0l18-18 10 10 26-30" stroke="#F472B6" stroke-width="10" stroke-linecap="round" stroke-linejoin="round"/>
  </g>
  <g transform="translate(820 230)">
    <rect x="0" y="0" width="230" height="160" rx="22" fill="#111827" stroke="#475569" stroke-width="4"/>
    <path d="M28 56h174M28 92h120" stroke="#94A3B8" stroke-width="8" stroke-linecap="round"/>
    <path d="M28 126h92" stroke="#FB7185" stroke-width="8" stroke-linecap="round"/>
  </g>
  <g transform="translate(1180 180)">
    <rect x="0" y="0" width="250" height="220" rx="26" fill="#111827" stroke="#475569" stroke-width="4"/>
    <rect x="34" y="34" width="182" height="66" rx="18" fill="#0F172A" stroke="#F472B6" stroke-width="3"/>
    <path d="M58 68h134" stroke="#F472B6" stroke-width="8" stroke-linecap="round"/>
    <path d="M58 140c24-20 42-30 66-30s42 10 66 30" stroke="#F472B6" stroke-width="10" stroke-linecap="round" stroke-linejoin="round"/>
    <circle cx="196" cy="156" r="18" fill="#FB7185"/>
  </g>
  <path d="M130 570C260 540 380 500 520 430C700 340 840 320 1000 290C1160 258 1320 230 1460 190" stroke="url(#line)" stroke-width="18" stroke-linecap="round"/>
  <g transform="translate(1300 86)">
    <path d="M0 70c28-22 58-34 90-40 22-4 46-4 72 0" stroke="#F472B6" stroke-width="8" stroke-linecap="round" opacity="0.82"/>
    <path d="M144 18l16 2-2 16" stroke="#F472B6" stroke-width="8" stroke-linecap="round" stroke-linejoin="round"/>
    <path d="M160 16c-18 20-34 32-58 38" stroke="#EC4899" stroke-width="6" stroke-linecap="round" opacity="0.65"/>
  </g>
</svg>