<svg xmlns="http://www.w3.org/2000/svg" width="1600" height="700" viewBox="0 0 1600 700" fill="none">
  <defs>
    <linearGradient id="bg" x1="0" y1="0" x2="1600" y2="700" gradientUnits="userSpaceOnUse">
      <stop stop-color="#111827"/>
      <stop offset="1" stop-color="#020617"/>
    </linearGradient>
    <linearGradient id="road" x1="220" y1="540" x2="1380" y2="220" gradientUnits="userSpaceOnUse">
      <stop stop-color="#FB7185"/>
      <stop offset="1" stop-color="#EC4899"/>
    </linearGradient>
  </defs>
  <rect width="1600" height="700" rx="34" fill="url(#bg)"/>
  <circle cx="260" cy="560" r="220" fill="#FB7185" fill-opacity="0.12"/>
  <circle cx="1270" cy="170" r="240" fill="#F472B6" fill-opacity="0.10"/>
  <path d="M140 560C300 520 430 470 560 430C760 370 900 360 1060 320C1210 282 1300 240 1460 190" stroke="url(#road)" stroke-width="18" stroke-linecap="round"/>
  <g transform="translate(138 442)">
    <rect x="0" y="0" width="128" height="160" rx="18" fill="#0F172A" stroke="#334155" stroke-width="4"/>
    <path d="M22 32h84M22 60h84M22 88h58" stroke="#94A3B8" stroke-width="6" stroke-linecap="round"/>
    <path d="M22 124h84" stroke="#F472B6" stroke-width="8" stroke-linecap="round"/>
  </g>
  <g transform="translate(360 370)">
    <circle cx="0" cy="0" r="52" fill="#111827" stroke="#F472B6" stroke-width="4"/>
    <path d="M0-28v56M-28 0h56" stroke="#F472B6" stroke-width="10" stroke-linecap="round"/>
  </g>
  <g transform="translate(740 328)">
    <rect x="0" y="0" width="210" height="118" rx="22" fill="#111827" stroke="#475569" stroke-width="4"/>
    <path d="M24 34h162M24 62h118" stroke="#94A3B8" stroke-width="6" stroke-linecap="round"/>
    <path d="M24 94h162" stroke="#FB7185" stroke-width="8" stroke-linecap="round"/>
  </g>
  <g transform="translate(1090 260)">
    <rect x="0" y="0" width="250" height="170" rx="24" fill="#111827" stroke="#475569" stroke-width="4"/>
    <path d="M28 120l46-44 42 26 62-70" stroke="#F472B6" stroke-width="10" stroke-linecap="round" stroke-linejoin="round"/>
    <circle cx="196" cy="54" r="18" fill="#FB7185"/>
    <path d="M196 40v28M182 54h28" stroke="#0B1220" stroke-width="6" stroke-linecap="round"/>
  </g>
  <g transform="translate(1328 92)">
    <path d="M0 66c26-24 52-38 82-46 22-6 48-8 74-6" stroke="#F472B6" stroke-width="8" stroke-linecap="round" opacity="0.8"/>
    <path d="M140 12l16 2-2 16" stroke="#F472B6" stroke-width="8" stroke-linecap="round" stroke-linejoin="round"/>
    <path d="M156 14c-18 18-34 30-58 36" stroke="#EC4899" stroke-width="6" stroke-linecap="round" opacity="0.65"/>
  </g>
</svg>