<svg xmlns="http://www.w3.org/2000/svg" width="1600" height="700" viewBox="0 0 1600 700" fill="none">
  <defs>
    <linearGradient id="bg" x1="0" y1="0" x2="1600" y2="700" gradientUnits="userSpaceOnUse">
      <stop stop-color="#0B1020"/>
      <stop offset="1" stop-color="#020617"/>
    </linearGradient>
    <linearGradient id="line" x1="200" y1="530" x2="1380" y2="220" gradientUnits="userSpaceOnUse">
      <stop stop-color="#FB7185"/>
      <stop offset="1" stop-color="#EC4899"/>
    </linearGradient>
  </defs>
  <rect width="1600" height="700" rx="34" fill="url(#bg)"/>
  <circle cx="280" cy="540" r="230" fill="#FB7185" fill-opacity="0.10"/>
  <circle cx="1280" cy="170" r="240" fill="#F472B6" fill-opacity="0.10"/>
  <g transform="translate(160 320)">
    <rect x="0" y="60" width="180" height="220" rx="10" fill="#111827" stroke="#334155" stroke-width="4"/>
    <rect x="40" y="0" width="100" height="280" rx="10" fill="#0F172A" stroke="#475569" stroke-width="4"/>
    <rect x="220" y="100" width="160" height="180" rx="10" fill="#111827" stroke="#334155" stroke-width="4"/>
    <rect x="410" y="20" width="120" height="260" rx="10" fill="#0F172A" stroke="#475569" stroke-width="4"/>
    <rect x="560" y="70" width="200" height="210" rx="10" fill="#111827" stroke="#334155" stroke-width="4"/>
    <rect x="790" y="30" width="140" height="250" rx="10" fill="#0F172A" stroke="#475569" stroke-width="4"/>
    <rect x="960" y="110" width="120" height="170" rx="10" fill="#111827" stroke="#334155" stroke-width="4"/>
    <path d="M24 220h132M244 184h92M434 140h64M584 126h100M820 150h72M982 198h80" stroke="#F472B6" stroke-width="8" stroke-linecap="round" opacity="0.9"/>
  </g>
  <path d="M110 560C240 540 360 520 500 460C660 390 780 350 940 320C1110 286 1260 250 1460 190" stroke="url(#line)" stroke-width="18" stroke-linecap="round"/>
  <g transform="translate(1030 330)">
    <circle cx="0" cy="0" r="70" fill="#0F172A" stroke="#F472B6" stroke-width="4"/>
    <path d="M-34 10l24-24 16 16 28-36" stroke="#F472B6" stroke-width="10" stroke-linecap="round" stroke-linejoin="round"/>
  </g>
  <g transform="translate(1300 88)">
    <path d="M0 70c28-22 58-34 90-40 22-4 46-4 72 0" stroke="#F472B6" stroke-width="8" stroke-linecap="round" opacity="0.82"/>
    <path d="M144 18l16 2-2 16" stroke="#F472B6" stroke-width="8" stroke-linecap="round" stroke-linejoin="round"/>
    <path d="M160 16c-18 20-34 32-58 38" stroke="#EC4899" stroke-width="6" stroke-linecap="round" opacity="0.65"/>
  </g>
</svg>