<svg xmlns="http://www.w3.org/2000/svg" width="1200" height="700" viewBox="0 0 1200 700" fill="none">
  <defs>
    <linearGradient id="g1" x1="0" y1="0" x2="1200" y2="700" gradientUnits="userSpaceOnUse">
      <stop stop-color="#78350F"/>
      <stop offset="0.5" stop-color="#1F2937"/>
      <stop offset="1" stop-color="#020617"/>
    </linearGradient>
    <radialGradient id="r1" cx="0" cy="0" r="1" gradientUnits="userSpaceOnUse" gradientTransform="translate(240 170) rotate(45) scale(280 220)">
      <stop stop-color="#FDBA74" stop-opacity="0.28"/>
      <stop offset="1" stop-color="#FDBA74" stop-opacity="0"/>
    </radialGradient>
  </defs>
  <rect width="1200" height="700" rx="40" fill="url(#g1)"/>
  <rect x="64" y="64" width="1072" height="572" rx="32" fill="#0B1220" fill-opacity="0.74" stroke="#FFFFFF" stroke-opacity="0.08"/>
  <ellipse cx="240" cy="170" rx="240" ry="180" fill="url(#r1)"/>
  <path d="M160 480H1040" stroke="#F59E0B" stroke-opacity="0.28" stroke-width="4" stroke-dasharray="10 14"/>
  <rect x="128" y="126" width="240" height="96" rx="24" fill="#FFFFFF" fill-opacity="0.06" stroke="#F59E0B" stroke-opacity="0.25"/>
  <text x="160" y="176" fill="#FFF7ED" font-family="Inter, Arial, sans-serif" font-size="40" font-weight="700">BOOST</text>
  <text x="160" y="203" fill="#FED7AA" font-family="Inter, Arial, sans-serif" font-size="18" font-weight="500">legacy / prudence / critique</text>
  <rect x="132" y="260" width="384" height="202" rx="28" fill="#FFFFFF" fill-opacity="0.05" stroke="#F59E0B" stroke-opacity="0.16"/>
  <rect x="164" y="294" width="220" height="16" rx="8" fill="#FDBA74" fill-opacity="0.75"/>
  <rect x="164" y="330" width="300" height="14" rx="7" fill="#E5E7EB" fill-opacity="0.28"/>
  <rect x="164" y="360" width="260" height="14" rx="7" fill="#E5E7EB" fill-opacity="0.18"/>
  <rect x="164" y="392" width="180" height="14" rx="7" fill="#E5E7EB" fill-opacity="0.12"/>
  <rect x="650" y="140" width="430" height="340" rx="34" fill="#090D16" fill-opacity="0.82" stroke="#FDE68A" stroke-opacity="0.10"/>
  <path d="M708 410H1020" stroke="#FDBA74" stroke-width="12" stroke-linecap="round"/>
  <path d="M708 362H980" stroke="#F59E0B" stroke-width="10" stroke-linecap="round" opacity="0.7"/>
  <path d="M708 314H930" stroke="#FB923C" stroke-width="10" stroke-linecap="round" opacity="0.45"/>
  <circle cx="740" cy="410" r="16" fill="#FDBA74"/>
  <circle cx="936" cy="314" r="14" fill="#FDE68A"/>
  <circle cx="1018" cy="410" r="14" fill="#F59E0B"/>
  <text x="708" y="476" fill="#E2E8F0" font-family="Inter, Arial, sans-serif" font-size="24" font-weight="600">maintenance critique</text>
  <text x="708" y="506" fill="#94A3B8" font-family="Inter, Arial, sans-serif" font-size="18" font-weight="400">rigueur, prudence, legacy</text>
</svg>