<svg xmlns="http://www.w3.org/2000/svg" width="1200" height="700" viewBox="0 0 1200 700" fill="none">
  <defs>
    <linearGradient id="g1" x1="0" y1="0" x2="1200" y2="700" gradientUnits="userSpaceOnUse">
      <stop stop-color="#0F766E"/>
      <stop offset="0.5" stop-color="#082F49"/>
      <stop offset="1" stop-color="#020617"/>
    </linearGradient>
    <radialGradient id="r1" cx="0" cy="0" r="1" gradientUnits="userSpaceOnUse" gradientTransform="translate(250 150) rotate(45) scale(320 240)">
      <stop stop-color="#5EEAD4" stop-opacity="0.35"/>
      <stop offset="1" stop-color="#5EEAD4" stop-opacity="0"/>
    </radialGradient>
    <radialGradient id="r2" cx="0" cy="0" r="1" gradientUnits="userSpaceOnUse" gradientTransform="translate(920 520) rotate(45) scale(320 260)">
      <stop stop-color="#A7F3D0" stop-opacity="0.26"/>
      <stop offset="1" stop-color="#A7F3D0" stop-opacity="0"/>
    </radialGradient>
  </defs>
  <rect width="1200" height="700" rx="40" fill="url(#g1)"/>
  <rect x="64" y="64" width="1072" height="572" rx="32" fill="#0B1220" fill-opacity="0.72" stroke="#FFFFFF" stroke-opacity="0.08"/>
  <ellipse cx="260" cy="160" rx="260" ry="200" fill="url(#r1)"/>
  <ellipse cx="900" cy="520" rx="260" ry="210" fill="url(#r2)"/>
  <path d="M150 510C240 420 320 392 410 432C485 465 548 545 632 540C720 535 770 460 852 408C943 350 1034 340 1120 380" stroke="#5EEAD4" stroke-opacity="0.55" stroke-width="10" stroke-linecap="round"/>
  <rect x="128" y="126" width="340" height="96" rx="24" fill="#FFFFFF" fill-opacity="0.06" stroke="#5EEAD4" stroke-opacity="0.25"/>
  <text x="160" y="176" fill="#E2E8F0" font-family="Inter, Arial, sans-serif" font-size="40" font-weight="700">DiagElec</text>
  <text x="160" y="203" fill="#A5F3FC" font-family="Inter, Arial, sans-serif" font-size="18" font-weight="500">terrain / UX / diagnostics</text>
  <rect x="128" y="256" width="420" height="220" rx="28" fill="#FFFFFF" fill-opacity="0.05" stroke="#FFFFFF" stroke-opacity="0.08"/>
  <rect x="160" y="290" width="180" height="18" rx="9" fill="#5EEAD4" fill-opacity="0.72"/>
  <rect x="160" y="330" width="300" height="14" rx="7" fill="#E2E8F0" fill-opacity="0.42"/>
  <rect x="160" y="360" width="260" height="14" rx="7" fill="#E2E8F0" fill-opacity="0.26"/>
  <rect x="160" y="390" width="220" height="14" rx="7" fill="#E2E8F0" fill-opacity="0.18"/>
  <rect x="628" y="152" width="444" height="304" rx="32" fill="#08111E" fill-opacity="0.72" stroke="#5EEAD4" stroke-opacity="0.18"/>
  <path d="M690 398C742 334 806 298 868 298C930 298 994 334 1046 398" stroke="#99F6E4" stroke-width="12" stroke-linecap="round"/>
  <circle cx="762" cy="332" r="22" fill="#5EEAD4" fill-opacity="0.85"/>
  <circle cx="868" cy="304" r="28" fill="#A7F3D0" fill-opacity="0.85"/>
  <circle cx="980" cy="338" r="20" fill="#2DD4BF" fill-opacity="0.85"/>
  <text x="690" y="474" fill="#E2E8F0" font-family="Inter, Arial, sans-serif" font-size="24" font-weight="600">Interface terrain, réactive et fiable</text>
  <text x="690" y="505" fill="#94A3B8" font-family="Inter, Arial, sans-serif" font-size="18" font-weight="400">Designed for techniciens, tablet & mobile</text>
</svg>