<svg xmlns="http://www.w3.org/2000/svg" width="1200" height="700" viewBox="0 0 1200 700" fill="none">
  <defs>
    <linearGradient id="g1" x1="0" y1="0" x2="1200" y2="700" gradientUnits="userSpaceOnUse">
      <stop stop-color="#4C1D95"/>
      <stop offset="0.55" stop-color="#111827"/>
      <stop offset="1" stop-color="#020617"/>
    </linearGradient>
    <radialGradient id="r1" cx="0" cy="0" r="1" gradientUnits="userSpaceOnUse" gradientTransform="translate(210 170) rotate(45) scale(300 230)">
      <stop stop-color="#C4B5FD" stop-opacity="0.32"/>
      <stop offset="1" stop-color="#C4B5FD" stop-opacity="0"/>
    </radialGradient>
    <radialGradient id="r2" cx="0" cy="0" r="1" gradientUnits="userSpaceOnUse" gradientTransform="translate(920 470) rotate(45) scale(320 240)">
      <stop stop-color="#DDD6FE" stop-opacity="0.22"/>
      <stop offset="1" stop-color="#DDD6FE" stop-opacity="0"/>
    </radialGradient>
  </defs>
  <rect width="1200" height="700" rx="40" fill="url(#g1)"/>
  <rect x="64" y="64" width="1072" height="572" rx="32" fill="#0B1220" fill-opacity="0.72" stroke="#FFFFFF" stroke-opacity="0.08"/>
  <ellipse cx="220" cy="160" rx="260" ry="200" fill="url(#r1)"/>
  <ellipse cx="920" cy="470" rx="260" ry="200" fill="url(#r2)"/>
  <path d="M190 530L320 220L450 530L580 260L710 530L840 180L970 530" stroke="#C4B5FD" stroke-width="12" stroke-linecap="round" stroke-linejoin="round"/>
  <path d="M128 536H1080" stroke="#A78BFA" stroke-opacity="0.26" stroke-width="4" stroke-dasharray="12 14"/>
  <rect x="128" y="126" width="300" height="96" rx="24" fill="#FFFFFF" fill-opacity="0.06" stroke="#C4B5FD" stroke-opacity="0.25"/>
  <text x="160" y="176" fill="#F5F3FF" font-family="Inter, Arial, sans-serif" font-size="40" font-weight="700">DiaPyl</text>
  <text x="160" y="203" fill="#E9D5FF" font-family="Inter, Arial, sans-serif" font-size="18" font-weight="500">rigueur / validation / calcul</text>
  <rect x="772" y="136" width="300" height="320" rx="30" fill="#080B14" fill-opacity="0.75" stroke="#DDD6FE" stroke-opacity="0.12"/>
  <rect x="808" y="176" width="220" height="16" rx="8" fill="#C4B5FD" fill-opacity="0.72"/>
  <rect x="808" y="212" width="160" height="14" rx="7" fill="#E5E7EB" fill-opacity="0.42"/>
  <rect x="808" y="242" width="196" height="14" rx="7" fill="#E5E7EB" fill-opacity="0.28"/>
  <rect x="808" y="290" width="120" height="120" rx="22" fill="#C4B5FD" fill-opacity="0.12" stroke="#C4B5FD" stroke-opacity="0.22"/>
  <path d="M836 384L860 338L886 364L920 312L948 334" stroke="#DDD6FE" stroke-width="8" stroke-linecap="round" stroke-linejoin="round"/>
  <text x="160" y="460" fill="#E2E8F0" font-family="Inter, Arial, sans-serif" font-size="26" font-weight="600">Validation des calculs sensibles</text>
  <text x="160" y="494" fill="#94A3B8" font-family="Inter, Arial, sans-serif" font-size="18" font-weight="400">tests critiques, données fiables, décisions sûres</text>
</svg>